<?xml version="1.0" encoding="utf-8"?>
<!-- Generator: Adobe Illustrator 28.0.0, SVG Export Plug-In . SVG Version: 6.00 Build 0)  -->
<svg version="1.1" id="Layer_1" xmlns="http://www.w3.org/2000/svg" xmlns:xlink="http://www.w3.org/1999/xlink" x="0px" y="0px"
	 viewBox="0 0 512 512" style="enable-background:new 0 0 512 512;" xml:space="preserve">
<style type="text/css">
	.st0{fill:#0196B2;stroke:#0196B2;stroke-miterlimit:10;}
</style>
<path class="st0" d="M336,352c97.2,0,176-78.8,176-176S433.2,0,336,0S160,78.8,160,176c0,18.7,2.9,36.8,8.3,53.7L7,391
	c-4.5,4.5-7,10.6-7,17v80c0,13.3,10.7,24,24,24h80c13.3,0,24-10.7,24-24v-40h40c13.3,0,24-10.7,24-24v-40h40c6.4,0,12.5-2.5,17-7
	l33.3-33.3C299.2,349.1,317.3,352,336,352z M376,96c22.1,0,40,17.9,40,40s-17.9,40-40,40s-40-17.9-40-40S353.9,96,376,96z"/>
</svg>
