<?xml version="1.0" encoding="utf-8"?>
<!-- Generator: Adobe Illustrator 28.0.0, SVG Export Plug-In . SVG Version: 6.00 Build 0)  -->
<svg version="1.1" id="Layer_1" xmlns="http://www.w3.org/2000/svg" xmlns:xlink="http://www.w3.org/1999/xlink" x="0px" y="0px"
	 viewBox="0 0 448 512" style="enable-background:new 0 0 448 512;" xml:space="preserve">
<style type="text/css">
	.st0{fill:#0196B2;}
</style>
<path class="st0" d="M144,144v48h160v-48c0-44.2-35.8-80-80-80S144,99.8,144,144z M80,192v-48C80,64.5,144.5,0,224,0
	s144,64.5,144,144v48h16c35.3,0,64,28.7,64,64v192c0,35.3-28.7,64-64,64H64c-35.3,0-64-28.7-64-64V256c0-35.3,28.7-64,64-64H80z"/>
</svg>
