<?xml version="1.0" encoding="utf-8"?>
<!-- Generator: Adobe Illustrator 28.0.0, SVG Export Plug-In . SVG Version: 6.00 Build 0)  -->
<svg version="1.1" id="Layer_1" xmlns="http://www.w3.org/2000/svg" xmlns:xlink="http://www.w3.org/1999/xlink" x="0px" y="0px"
	 viewBox="0 0 448 512" style="enable-background:new 0 0 448 512;" xml:space="preserve">
<style type="text/css">
	.st0{fill:#0196B2;}
</style>
<path class="st0" d="M144,144c0-44.2,35.8-80,80-80c31.9,0,59.4,18.6,72.3,45.7c7.6,16,26.7,22.8,42.6,15.2s22.8-26.7,15.2-42.6
	C331,33.7,281.5,0,224,0C144.5,0,80,64.5,80,144v48H64c-35.3,0-64,28.7-64,64v192c0,35.3,28.7,64,64,64h320c35.3,0,64-28.7,64-64
	V256c0-35.3-28.7-64-64-64H144V144z"/>
</svg>
